<svg width="37" height="37" viewBox="0 0 37 37" fill="none" xmlns="http://www.w3.org/2000/svg">
<path d="M22.5441 23.05C23.7062 23.05 24.7288 22.4145 25.2556 21.4535L30.8026 11.394C31.3758 10.371 30.6321 9.1 29.4546 9.1H6.52308L5.06662 6H0V9.1H3.09885L8.67678 20.8645L6.58505 24.6465C5.45397 26.7235 6.94142 29.25 9.29655 29.25H27.8896V26.15H9.29655L11.0009 23.05H22.5441ZM7.99503 12.2H26.8205L22.5441 19.95H11.6672L7.99503 12.2ZM9.29655 30.8C7.59218 30.8 6.21319 32.195 6.21319 33.9C6.21319 35.605 7.59218 37 9.29655 37C11.0009 37 12.3954 35.605 12.3954 33.9C12.3954 32.195 11.0009 30.8 9.29655 30.8ZM24.7908 30.8C23.0864 30.8 21.7074 32.195 21.7074 33.9C21.7074 35.605 23.0864 37 24.7908 37C26.4952 37 27.8896 35.605 27.8896 33.9C27.8896 32.195 26.4952 30.8 24.7908 30.8Z" fill="white"/>
<ellipse cx="28.2241" cy="8.95585" rx="8.64795" ry="8.65116" fill="#F4BB46"/>
<path d="M30.8936 6.34291L27.5576 14.0349H26.1776L29.5496 6.48691H25.1096V5.32291H30.8936V6.34291Z" fill="white"/>
</svg>
