<svg width="34" height="34" viewBox="0 0 34 34" fill="none" xmlns="http://www.w3.org/2000/svg">
<path d="M2 2L32 32" stroke="#B52225" stroke-width="3" stroke-linecap="round" stroke-linejoin="round"/>
<path d="M9.06915 9.22526C4.49718 12.2787 2 17 2 17C2 17 7.45454 27.3125 17 27.3125C20.0754 27.3125 22.7261 26.2421 24.9066 24.7909M15.5 6.77327C15.9881 6.71716 16.4882 6.6875 17 6.6875C26.5454 6.6875 32 17 32 17C32 17 30.9623 18.9619 29 21.1744" stroke="#B52225" stroke-width="3" stroke-linecap="round" stroke-linejoin="round"/>
<path d="M19.8125 20.5667C19.0163 21.2636 17.9651 21.6875 16.8125 21.6875C14.3271 21.6875 12.3125 19.717 12.3125 17.286C12.3125 16.0775 12.8104 14.9829 13.6165 14.1875" stroke="#B52225" stroke-width="3" stroke-linecap="round" stroke-linejoin="round"/>
</svg>
