<svg width="33" height="33" viewBox="0 0 33 33" fill="none" xmlns="http://www.w3.org/2000/svg">
<path d="M13.2081 3.30033C10.5809 3.30033 8.06121 4.34406 6.20345 6.20192C4.3457 8.05978 3.30203 10.5796 3.30203 13.207C3.30203 15.8344 4.3457 18.3542 6.20345 20.212C8.06121 22.0699 10.5809 23.1136 13.2081 23.1136C15.8354 23.1136 18.355 22.0699 20.2128 20.212C22.0705 18.3542 23.1142 15.8344 23.1142 13.207C23.1142 10.5796 22.0705 8.05978 20.2128 6.20192C18.355 4.34406 15.8354 3.30033 13.2081 3.30033ZM8.15869e-08 13.207C0.000301023 11.1049 0.502268 9.03322 1.46418 7.16416C2.4261 5.29509 3.82018 3.68261 5.53058 2.46071C7.24097 1.23882 9.21827 0.44281 11.2981 0.138836C13.378 -0.165139 15.5004 0.0317027 17.4889 0.713001C19.4774 1.3943 21.2746 2.54038 22.7312 4.05599C24.1877 5.5716 25.2615 7.41297 25.8633 9.42706C26.4651 11.4412 26.5776 13.5698 26.1913 15.6361C25.8051 17.7024 24.9313 19.6467 23.6425 21.3073L32.5365 30.2018C32.8373 30.5132 33.0037 30.9303 32.9999 31.3632C32.9962 31.7962 32.8225 32.2103 32.5164 32.5164C32.2103 32.8225 31.7962 32.9962 31.3633 32.9999C30.9304 33.0037 30.5134 32.8373 30.202 32.5365L21.308 23.642C19.3556 25.1579 17.017 26.0955 14.5583 26.3481C12.0995 26.6008 9.61912 26.1584 7.39926 25.0713C5.1794 23.9842 3.30911 22.296 2.00107 20.1986C0.693028 18.1012 -0.000274597 15.6789 8.15869e-08 13.207Z" fill="white"/>
</svg>
